# xmcd
#
# Track frame offsets:
#   150
#   8891
#   15371
#   23704
#   31745
#   38513
#   50504
#   57607
#   65628
#   70503
#   77262
#   84104
#   90776
#   95749
#   100758
#   116540
#   132553
#   144733
#   157349
#   168881
#   181285
#   195028
#   207650
#   223995
#   243651
#   259401
#   275422
#   287375
#   301263
#   319597
#   337088
#
# Disc length: 4704 seconds
#
# Revision: 0
# Processed by: cddbd v1.5.1PL0 Copyright (c) Steve Scherf et al.
# Submitted via: uFREEDB ActiveX Control 1.5
#
DISCID=aa125e1f
DTITLE=Forro Cavalo Fantastico - Cavalo Fantastico
DYEAR=1900
DGENRE=Forro
TTITLE0=Cavalo Fantastico 01
TTITLE1=Cavalo Fantastico 02
TTITLE2=Cavalo Fantastico 03
TTITLE3=Cavalo Fantastico 04
TTITLE4=Cavalo Fantastico 05
TTITLE5=Cavalo Fantastico 06
TTITLE6=Cavalo Fantastico 07
TTITLE7=Cavalo Fantastico 08
TTITLE8=Cavalo Fantastico 09
TTITLE9=Cavalo Fantastico 10
TTITLE10=Cavalo Fantastico 11
TTITLE11=Cavalo Fantastico 12
TTITLE12=Cavalo Fantastico13
TTITLE13=Cavalo Fantastico 14
TTITLE14=Cavalo Fantastico
TTITLE15=Cavalo Fantastico16
TTITLE16=Cavalo Fantastico17
TTITLE17=Cavalo Fantastico18
TTITLE18=Cavalo Fantastico19
TTITLE19=Cavalo Fantastico20
TTITLE20=Cavalo Fantastico21
TTITLE21=Cavalo Fantastico22
TTITLE22=Cavalo Fantastico23
TTITLE23=Cavalo Fantastico24
TTITLE24=Cavalo Fantastico25
TTITLE25=Cavalo Fantastico26
TTITLE26=Cavalo Fantastico27
TTITLE27=Cavalo Fantastico28
TTITLE28=Cavalo Fantastico29
TTITLE29=Cavalo Fantastico30
TTITLE30=Cavalo Fantastico31
EXTD=
EXTT0=
EXTT1=
EXTT2=
EXTT3=
EXTT4=
EXTT5=
EXTT6=
EXTT7=
EXTT8=
EXTT9=
EXTT10=
EXTT11=
EXTT12=
EXTT13=
EXTT14=
EXTT15=
EXTT16=
EXTT17=
EXTT18=
EXTT19=
EXTT20=
EXTT21=
EXTT22=
EXTT23=
EXTT24=
EXTT25=
EXTT26=
EXTT27=
EXTT28=
EXTT29=
EXTT30=
PLAYORDER=
